HIERARCHY
ROOT mixamorig:Hips
{
  OFFSET 0.000000 0.000000 0.000000
  CHANNELS 6 Xposition Yposition Zposition Xrotation Yrotation Zrotation
  JOINT mixamorig:Spine
  {
    OFFSET 1.029272 24.139234 -3.309675
    CHANNELS 3 Xrotation Yrotation Zrotation
    JOINT mixamorig:Spine2
    {
      OFFSET 1.029272 24.139234 -3.309675
      CHANNELS 3 Xrotation Yrotation Zrotation
      JOINT mixamorig:Neck
      {
        OFFSET 0.000000 6.442996 0.000000
        CHANNELS 3 Xrotation Yrotation Zrotation
        JOINT mixamorig:Head
        {
          OFFSET 0.000000 7.107403 0.000000
          CHANNELS 3 Xrotation Yrotation Zrotation
          End Site
          {
            OFFSET 0.000000 2.132221 0.000000
          }
        }
      }
      JOINT mixamorig:LeftShoulder
      {
        OFFSET 15.824782 3.385161 -4.490161
        CHANNELS 3 Xrotation Yrotation Zrotation
        JOINT mixamorig:LeftArm
        {
          OFFSET 6.638871 -21.899489 2.577768
          CHANNELS 3 Xrotation Yrotation Zrotation
          JOINT mixamorig:LeftForeArm
          {
            OFFSET 1.662469 -23.769893 2.728891
            CHANNELS 3 Xrotation Yrotation Zrotation
            JOINT mixamorig:LeftHand
            {
              OFFSET -1.157011 -3.989585 -0.720753
              CHANNELS 3 Xrotation Yrotation Zrotation
              End Site
              {
                OFFSET -0.347103 -1.196876 -0.216226
              }
            }
          }
        }
      }
      JOINT mixamorig:RightShoulder
      {
        OFFSET -15.824782 3.385161 4.490161
        CHANNELS 3 Xrotation Yrotation Zrotation
        JOINT mixamorig:RightArm
        {
          OFFSET -4.830150 -29.706995 -0.659229
          CHANNELS 3 Xrotation Yrotation Zrotation
          JOINT mixamorig:RightForeArm
          {
            OFFSET -6.735460 -18.902062 -7.831287
            CHANNELS 3 Xrotation Yrotation Zrotation
            JOINT mixamorig:RightHand
            {
              OFFSET 1.562441 -2.563879 -3.933201
              CHANNELS 3 Xrotation Yrotation Zrotation
              End Site
              {
                OFFSET 0.468732 -0.769164 -1.179960
              }
            }
          }
        }
      }
    }
  }
  JOINT mixamorig:LeftUpLeg
  {
    OFFSET 8.875314 -0.675327 -0.291526
    CHANNELS 3 Xrotation Yrotation Zrotation
    JOINT mixamorig:LeftLeg
    {
      OFFSET -2.390302 -38.516964 -5.036820
      CHANNELS 3 Xrotation Yrotation Zrotation
      JOINT mixamorig:LeftFoot
      {
        OFFSET -8.828852 -38.184494 2.671044
        CHANNELS 3 Xrotation Yrotation Zrotation
        JOINT mixamorig:LeftToeBase
        {
          OFFSET 0.295877 -2.442271 -8.215583
          CHANNELS 3 Xrotation Yrotation Zrotation
          End Site
          {
            OFFSET 0.088763 -0.732681 -2.464675
          }
        }
      }
    }
  }
  JOINT mixamorig:RightUpLeg
  {
    OFFSET -8.875314 0.675327 0.291526
    CHANNELS 3 Xrotation Yrotation Zrotation
    JOINT mixamorig:RightLeg
    {
      OFFSET 8.015065 -34.486904 0.724164
      CHANNELS 3 Xrotation Yrotation Zrotation
      JOINT mixamorig:RightFoot
      {
        OFFSET 6.404977 -40.836734 14.623500
        CHANNELS 3 Xrotation Yrotation Zrotation
        JOINT mixamorig:RightToeBase
        {
          OFFSET -6.047014 -0.576580 -6.907032
          CHANNELS 3 Xrotation Yrotation Zrotation
          End Site
          {
            OFFSET -1.814104 -0.172974 -2.072110
          }
        }
      }
    }
  }
}
MOTION
Frames: 18
Frame Time: 0.083333
0.123758 0.139774 0.105676 2.003830 -0.021022 0.526331 0.000000 0.000000 0.000000 -5.762068 40.231883 2.038535 -32.168378 -22.201887 -26.388780 -10.608327 -32.996060 -11.207365 14.397987 -37.145603 2.499982 -8.440004 -6.612609 -24.150746 4.926815 15.390961 -12.290654 0.000000 0.000000 0.000000 0.000000 0.000000 0.000000 0.000000 0.000000 0.000000 0.000000 0.000000 0.000000 0.000000 0.000000 0.000000 -7.592770 -0.081491 6.389916 -13.349445 12.528311 13.955416 18.553206 30.287798 -43.355057 0.000000 0.000000 0.000000 -2.112417 -0.494757 -22.580301 13.603450 0.848305 -5.837123 -6.693126 4.741052 19.469859 0.000000 0.000000 0.000000
0.124982 0.138530 0.108307 1.978502 -0.019808 0.519184 0.000000 0.000000 0.000000 -5.757310 40.300011 2.063924 -32.157688 -22.181766 -26.524223 -10.539422 -33.002779 -11.343445 14.483801 -37.186924 2.662119 -8.257416 -6.511812 -23.964585 4.997523 15.154708 -12.171058 0.000000 0.000000 0.000000 0.000000 0.000000 0.000000 0.000000 0.000000 0.000000 0.000000 0.000000 0.000000 0.000000 0.000000 0.000000 -7.281935 -0.100762 6.187722 -14.065079 12.673897 13.540369 16.684395 29.907402 -43.256083 0.000000 0.000000 0.000000 -2.008726 -0.464827 -22.628742 13.375630 0.745295 -5.471270 -6.979143 4.380239 19.727749 0.000000 0.000000 0.000000
0.130044 0.135250 0.116202 3.671359 -0.136506 0.170004 0.000000 0.000000 0.000000 -5.837778 39.240569 1.252062 -33.064434 -22.587801 -25.321448 -11.377284 -33.456941 -9.593911 12.470208 -36.120768 3.633186 -6.339224 -5.437331 -23.311804 4.033629 12.547633 -11.151684 0.000000 0.000000 0.000000 0.000000 0.000000 0.000000 0.000000 0.000000 0.000000 0.000000 0.000000 0.000000 0.000000 0.000000 0.000000 -12.049459 0.081523 10.410662 -15.908040 18.635783 14.264262 12.341973 22.671998 -50.186540 0.000000 0.000000 0.000000 -4.447242 -0.624421 -20.125940 13.297175 1.764570 -2.899228 -10.145695 2.543688 18.786449 0.000000 0.000000 0.000000
0.137664 0.131538 0.127015 4.494678 -0.212597 -0.222475 -0.000000 0.000000 0.000000 -5.939090 37.767519 1.065361 -33.066350 -22.557116 -24.640699 -11.822222 -33.297008 -9.040403 11.664936 -34.487914 5.398601 -2.573165 -3.691356 -19.571935 3.851212 7.703799 -8.981596 0.000000 0.000000 0.000000 0.000000 0.000000 0.000000 0.000000 0.000000 0.000000 0.000000 0.000000 0.000000 0.000000 0.000000 0.000000 -12.919107 0.023868 11.875376 -22.581979 23.989627 12.824222 -5.911528 12.411729 -51.886671 0.000000 0.000000 0.000000 -5.488017 -0.593303 -17.399304 11.832560 1.912079 0.943426 -15.156764 0.481897 19.254854 0.000000 0.000000 0.000000
0.142073 0.129539 0.135358 4.082127 -0.224630 -0.508497 -0.000000 0.000000 0.000000 -6.173585 34.015315 1.559508 -31.243617 -21.721281 -22.529604 -12.760259 -31.440854 -8.627198 11.236888 -30.920699 5.777321 1.771495 -2.220942 -13.065361 3.325203 2.487490 -6.504985 0.000000 0.000000 0.000000 0.000000 0.000000 0.000000 0.000000 0.000000 0.000000 0.000000 0.000000 0.000000 0.000000 0.000000 0.000000 -10.982732 -0.196849 11.285769 -27.031311 25.187897 12.410797 -17.555668 6.917463 -48.821167 0.000000 0.000000 0.000000 -5.455848 -0.622442 -13.373378 10.795964 1.659099 1.419922 -18.586738 1.999690 18.892472 0.000000 0.000000 0.000000
0.142972 0.129703 0.127706 3.134904 -0.185638 -0.485253 -0.000000 0.000000 0.000000 -6.496955 28.390351 1.983526 -27.964883 -19.477853 -18.944688 -14.425216 -27.460745 -8.254545 9.589580 -26.188734 4.344261 4.671076 -1.320296 -7.254763 1.501487 -0.811056 -4.691935 0.000000 0.000000 0.000000 0.000000 0.000000 0.000000 0.000000 0.000000 0.000000 0.000000 0.000000 0.000000 0.000000 0.000000 0.000000 -7.564241 -0.459447 9.939619 -26.378960 21.189194 10.356293 -11.955640 14.964061 -49.053121 0.000000 0.000000 0.000000 -4.687965 -0.564986 -8.812065 9.427462 0.616612 -1.028690 -18.097761 1.698410 18.257639 0.000000 0.000000 0.000000
0.143476 0.131372 0.106159 2.071111 -0.125004 -0.319902 0.000000 0.000000 0.000000 -6.785712 22.834509 2.068384 -24.348126 -15.425260 -15.417537 -16.264749 -21.681553 -8.619059 8.093370 -21.536420 3.234716 4.531677 -0.873761 -4.072549 1.691842 -1.504626 -3.865601 0.000000 0.000000 0.000000 0.000000 0.000000 0.000000 0.000000 0.000000 0.000000 0.000000 0.000000 0.000000 0.000000 0.000000 0.000000 -3.586279 -0.647431 7.735397 -20.263157 13.817509 7.776198 -5.588074 20.552346 -38.859957 0.000000 0.000000 0.000000 -2.844579 -0.250330 -4.566143 7.964405 -0.469945 -4.091230 -14.708022 -1.291041 15.656313 0.000000 0.000000 0.000000
0.146492 0.133011 0.082420 0.734127 -0.048791 -0.137971 0.000000 0.000000 0.000000 -7.013828 18.131188 2.064359 -21.552768 -11.302127 -13.269814 -17.020731 -16.312591 -9.304296 8.279174 -17.349801 2.379743 2.774513 -0.646303 -2.645696 1.261710 -1.148918 -2.731457 0.000000 0.000000 0.000000 0.532802 -1.230767 -0.000000 0.000000 0.000000 0.000000 0.000000 0.000000 0.000000 0.000000 0.000000 0.000000 -0.108842 -0.570100 4.206507 -10.599010 5.689776 6.242804 2.399588 20.414748 -22.413616 0.000000 0.000000 0.000000 0.141980 0.235292 -1.367778 6.926974 -0.732664 -5.453562 -9.947425 -5.328708 9.845072 0.000000 0.000000 0.000000
0.151081 0.132848 0.068566 -0.238229 0.000565 -0.067278 0.000000 0.000000 0.000000 -7.124807 15.740843 2.070744 -20.311050 -9.283578 -11.910055 -17.146281 -13.594858 -9.012353 8.719219 -15.335028 0.986744 0.654434 -0.423438 -0.974090 0.364762 -0.560610 -0.980926 0.000000 0.000000 0.000000 2.961660 -6.618767 -0.011283 -0.101642 -0.003991 0.126150 0.112236 -0.125674 -0.069133 0.000000 0.000000 0.000000 -0.339698 -0.088326 1.121962 -6.315085 2.664683 3.095161 1.922132 10.564477 -9.699544 0.000000 0.000000 0.000000 0.364731 0.030225 0.104026 3.999751 -0.371945 -3.496384 -5.406431 -3.797187 5.280048 0.000000 0.000000 0.000000
0.153734 0.130359 0.061502 -0.707683 0.004484 -0.166700 0.000000 0.000000 0.000000 -7.175055 14.628581 2.134051 -19.814935 -8.251851 -10.923016 -17.214739 -12.156383 -8.440114 7.776010 -14.831450 -0.820260 -0.263602 0.006340 0.645736 -0.041191 0.161965 -0.327070 0.000000 0.000000 0.000000 7.273956 -14.734328 -0.005509 -0.743312 0.012913 0.741335 0.739213 -0.694286 -0.521649 0.000000 0.000000 0.000000 1.360536 0.064759 -0.525262 -1.818685 0.249372 1.615426 -1.252283 2.005536 -1.852167 0.000000 0.000000 0.000000 -1.108128 -0.434466 0.201542 -1.292503 0.092480 0.412618 -0.790263 0.993120 3.022079 0.000000 0.000000 0.000000
0.152751 0.126361 0.058480 -2.006827 0.006012 -0.506959 0.000000 0.000000 0.000000 -7.307134 11.675757 2.360890 -18.600995 -5.770183 -9.441837 -17.043161 -8.950810 -7.919535 8.718687 -12.318121 -2.625877 0.028212 0.317670 1.580986 -0.605320 0.673976 -0.921407 0.000000 0.000000 0.000000 8.265283 -11.774396 0.190090 -2.213407 0.084728 1.910224 2.097838 -1.773550 -1.568901 0.000000 0.000000 0.000000 3.723668 0.122178 -0.865992 -5.275588 0.820291 3.328774 -4.462093 3.781275 -4.055230 0.000000 0.000000 0.000000 -1.988522 -0.972634 -0.125500 -5.917975 -0.391286 1.750187 -4.663565 0.252417 12.307400 0.000000 0.000000 0.000000
0.152098 0.121024 0.058434 -2.381957 -0.035809 -0.887330 0.000000 0.000000 0.000000 -7.478630 7.799008 2.264796 -17.851528 -3.117305 -8.134191 -17.157244 -5.706925 -7.532452 6.773150 -9.495074 -4.636641 2.840339 1.496363 1.648788 -2.340595 1.414854 -1.600972 0.000000 0.000000 0.000000 8.817440 -7.874839 0.671451 -3.001692 -0.029209 2.627691 2.764185 -2.460008 -2.271640 0.000000 0.000000 0.000000 4.145318 0.087602 0.162553 -8.461712 1.712110 2.478213 -8.572298 1.181508 -3.809240 0.000000 0.000000 0.000000 0.514364 -0.411679 -2.561887 -15.748218 -2.898429 4.744124 -11.026316 -3.872249 25.567003 0.000000 0.000000 0.000000
0.151593 0.117460 0.061760 -0.754921 -0.158380 -1.341062 0.000000 0.000000 0.000000 -7.537293 6.475124 2.285260 -18.549522 -2.274807 -7.888422 -18.027972 -4.869203 -7.550280 2.523430 -9.132771 -6.002504 7.215981 3.055206 1.273703 -4.272893 1.661119 -3.161101 0.000000 0.000000 0.000000 7.255912 -6.433184 0.635190 -1.870361 -1.062257 4.125409 1.850745 -3.669899 -2.081754 0.000000 0.000000 0.000000 1.022502 0.229067 0.804859 -11.768012 3.078415 3.512163 -9.911020 0.103250 -5.838186 0.000000 0.000000 0.000000 4.221090 1.219470 -6.778673 -25.532201 -6.817668 9.200990 -10.218087 -1.997127 28.699325 0.000000 0.000000 0.000000
0.148792 0.118938 0.066430 -0.012510 -0.254126 -1.857060 0.000000 0.000000 0.000000 -7.529772 6.727763 2.747088 -18.927419 -1.878447 -8.477199 -18.417776 -4.696224 -8.297892 2.830401 -9.072509 -6.567949 8.255394 3.055073 0.269661 -4.505589 1.824114 -5.893690 0.000000 0.000000 0.000000 7.087725 -6.745580 0.271929 -1.406125 -2.357187 6.828917 0.256889 -3.867544 -3.320973 0.000000 0.000000 0.000000 -0.684118 0.328606 1.425479 -15.142032 4.395299 4.471182 -8.277751 1.600870 -8.616312 0.000000 0.000000 0.000000 4.640832 1.784081 -11.233904 -21.600933 -7.795758 12.885896 -8.585747 -3.600307 24.462577 0.000000 0.000000 0.000000
0.144488 0.126203 0.069698 0.101411 -0.278302 -2.012745 0.000000 0.000000 0.000000 -7.493345 7.604044 2.987367 -19.158478 -3.145998 -9.219019 -18.306651 -6.280860 -8.627685 4.677095 -9.142915 -5.741090 11.583180 3.072894 -3.306574 -4.729001 2.164930 -11.627529 0.000000 0.000000 0.000000 7.830433 -7.773870 0.342545 -1.213544 -3.210413 8.073943 -1.167238 -3.134317 -4.209165 0.000000 0.000000 0.000000 -2.568087 0.349794 2.019065 -13.344779 4.684776 5.206016 -0.197199 2.688027 -9.333100 0.000000 0.000000 0.000000 3.332673 1.360661 -11.482399 -6.376122 -5.653969 6.117670 -10.347027 -20.073307 25.849427 0.000000 0.000000 0.000000
0.142020 0.135600 0.071892 0.555263 -0.287999 -2.000674 0.000000 0.000000 0.000000 -7.429154 9.069888 3.055481 -19.735672 -5.347380 -9.895414 -18.211180 -8.866228 -8.504643 8.014404 -9.007434 -3.330830 19.629807 3.851069 -9.922050 -5.172245 1.089145 -16.605285 0.000000 0.000000 0.000000 7.432884 -9.253387 0.477258 -0.627395 -3.930485 8.928481 -2.694218 -2.883298 -4.696852 0.000000 0.000000 0.000000 -5.625636 0.319779 3.111174 -10.511855 4.956844 4.818333 10.281629 1.198951 -7.220379 0.000000 0.000000 0.000000 2.209759 1.078268 -10.431531 6.737686 -1.557763 -0.737634 -6.016559 -24.392825 18.991444 0.000000 0.000000 0.000000
0.139476 0.143962 0.075361 1.302905 -0.295055 -1.908942 0.000000 0.000000 0.000000 -7.318580 11.579863 3.094183 -20.609345 -7.820541 -11.094186 -18.140862 -11.944308 -8.759489 14.368836 -8.892361 -1.144153 18.197208 2.614209 -13.872212 -7.029946 0.213745 -17.373216 0.000000 0.000000 0.000000 7.950915 -11.977256 0.956289 -1.335762 -4.192166 9.137086 -4.592545 -2.652012 -4.825397 0.000000 0.000000 0.000000 -9.147412 0.344692 4.182686 -10.143556 6.059257 4.399706 25.458271 2.483221 -5.823277 0.000000 0.000000 0.000000 1.342479 1.014034 -8.949156 10.096910 -0.241347 -3.229076 -5.268210 -21.861614 14.959678 0.000000 0.000000 0.000000
0.133433 0.148188 0.085817 1.338891 -0.250022 -1.554482 0.000000 0.000000 0.000000 -7.295319 12.057668 2.772601 -20.745998 -8.490109 -11.805131 -17.889300 -12.873154 -9.202048 17.301819 -8.289837 -0.012334 14.319819 1.152614 -14.261744 -6.166604 -0.090046 -15.191682 0.000000 0.000000 0.000000 8.638962 -12.599041 1.813814 -2.177159 -4.345304 9.259335 -4.425429 -1.996843 -5.826373 0.000000 0.000000 0.000000 -10.667920 0.350915 5.506930 -15.748481 9.099833 2.962402 21.397898 3.960193 -9.339137 0.000000 0.000000 0.000000 0.431380 0.653524 -6.590558 9.183589 -1.293145 -6.552175 -3.855646 -18.881277 15.306104 0.000000 0.000000 0.000000
